<svg xmlns="http://www.w3.org/2000/svg" xmlns:xlink="http://www.w3.org/1999/xlink" width="147" zoomAndPan="magnify" viewBox="0 0 110.25 44.999999" height="60" preserveAspectRatio="xMidYMid meet" version="1.0"><defs><g/><clipPath id="81c16ce985"><path d="M 15 6 L 19 6 L 19 9 L 15 9 Z M 15 6 " clip-rule="nonzero"/></clipPath><clipPath id="c293b6529e"><path d="M 0 18.644531 L 25.921875 0.0273438 L 43.605469 24.65625 L 17.683594 43.269531 Z M 0 18.644531 " clip-rule="nonzero"/></clipPath><clipPath id="abb686ed1a"><path d="M 0 18.644531 L 25.921875 0.0273438 L 43.605469 24.65625 L 17.683594 43.269531 Z M 0 18.644531 " clip-rule="nonzero"/></clipPath><clipPath id="9205a32c99"><path d="M 16 6 L 20 6 L 20 9 L 16 9 Z M 16 6 " clip-rule="nonzero"/></clipPath><clipPath id="9f69c1303d"><path d="M 0 18.644531 L 25.921875 0.0273438 L 43.605469 24.65625 L 17.683594 43.269531 Z M 0 18.644531 " clip-rule="nonzero"/></clipPath><clipPath id="b26542d7ea"><path d="M 0 18.644531 L 25.921875 0.0273438 L 43.605469 24.65625 L 17.683594 43.269531 Z M 0 18.644531 " clip-rule="nonzero"/></clipPath><clipPath id="3e22b58864"><path d="M 19 6 L 22 6 L 22 9 L 19 9 Z M 19 6 " clip-rule="nonzero"/></clipPath><clipPath id="562183f245"><path d="M 0 18.644531 L 25.921875 0.0273438 L 43.605469 24.65625 L 17.683594 43.269531 Z M 0 18.644531 " clip-rule="nonzero"/></clipPath><clipPath id="616792401e"><path d="M 0 18.644531 L 25.921875 0.0273438 L 43.605469 24.65625 L 17.683594 43.269531 Z M 0 18.644531 " clip-rule="nonzero"/></clipPath><clipPath id="57ca4d383a"><path d="M 21 6 L 24 6 L 24 9 L 21 9 Z M 21 6 " clip-rule="nonzero"/></clipPath><clipPath id="78ab3944fd"><path d="M 0 18.644531 L 25.921875 0.0273438 L 43.605469 24.65625 L 17.683594 43.269531 Z M 0 18.644531 " clip-rule="nonzero"/></clipPath><clipPath id="05e2048e6c"><path d="M 0 18.644531 L 25.921875 0.0273438 L 43.605469 24.65625 L 17.683594 43.269531 Z M 0 18.644531 " clip-rule="nonzero"/></clipPath><clipPath id="31a15e8192"><path d="M 23 6 L 26 6 L 26 9 L 23 9 Z M 23 6 " clip-rule="nonzero"/></clipPath><clipPath id="75cd839fbe"><path d="M 0 18.644531 L 25.921875 0.0273438 L 43.605469 24.65625 L 17.683594 43.269531 Z M 0 18.644531 " clip-rule="nonzero"/></clipPath><clipPath id="1e83c7af7e"><path d="M 0 18.644531 L 25.921875 0.0273438 L 43.605469 24.65625 L 17.683594 43.269531 Z M 0 18.644531 " clip-rule="nonzero"/></clipPath><clipPath id="773882707f"><path d="M 25 6 L 28 6 L 28 9 L 25 9 Z M 25 6 " clip-rule="nonzero"/></clipPath><clipPath id="b3d262b6c8"><path d="M 0 18.644531 L 25.921875 0.0273438 L 43.605469 24.65625 L 17.683594 43.269531 Z M 0 18.644531 " clip-rule="nonzero"/></clipPath><clipPath id="ca16da3774"><path d="M 0 18.644531 L 25.921875 0.0273438 L 43.605469 24.65625 L 17.683594 43.269531 Z M 0 18.644531 " clip-rule="nonzero"/></clipPath><clipPath id="3c59fc4410"><path d="M 26 7 L 30 7 L 30 9 L 26 9 Z M 26 7 " clip-rule="nonzero"/></clipPath><clipPath id="fc548c06de"><path d="M 0 18.644531 L 25.921875 0.0273438 L 43.605469 24.65625 L 17.683594 43.269531 Z M 0 18.644531 " clip-rule="nonzero"/></clipPath><clipPath id="159e8c2f2f"><path d="M 0 18.644531 L 25.921875 0.0273438 L 43.605469 24.65625 L 17.683594 43.269531 Z M 0 18.644531 " clip-rule="nonzero"/></clipPath><clipPath id="e60520251c"><path d="M 11 8 L 15 8 L 15 12 L 11 12 Z M 11 8 " clip-rule="nonzero"/></clipPath><clipPath id="8b8efcdbc2"><path d="M 0 18.644531 L 25.921875 0.0273438 L 43.605469 24.65625 L 17.683594 43.269531 Z M 0 18.644531 " clip-rule="nonzero"/></clipPath><clipPath id="f2f1c65f3b"><path d="M 0 18.644531 L 25.921875 0.0273438 L 43.605469 24.65625 L 17.683594 43.269531 Z M 0 18.644531 " clip-rule="nonzero"/></clipPath><clipPath id="efe116ff9a"><path d="M 12 8 L 16 8 L 16 12 L 12 12 Z M 12 8 " clip-rule="nonzero"/></clipPath><clipPath id="3a7844bd18"><path d="M 0 18.644531 L 25.921875 0.0273438 L 43.605469 24.65625 L 17.683594 43.269531 Z M 0 18.644531 " clip-rule="nonzero"/></clipPath><clipPath id="0f2b6074e4"><path d="M 0 18.644531 L 25.921875 0.0273438 L 43.605469 24.65625 L 17.683594 43.269531 Z M 0 18.644531 " clip-rule="nonzero"/></clipPath><clipPath id="943b56ac18"><path d="M 15 8 L 19 8 L 19 11 L 15 11 Z M 15 8 " clip-rule="nonzero"/></clipPath><clipPath id="2bc955a086"><path d="M 0 18.644531 L 25.921875 0.0273438 L 43.605469 24.65625 L 17.683594 43.269531 Z M 0 18.644531 " clip-rule="nonzero"/></clipPath><clipPath id="722e8828c7"><path d="M 0 18.644531 L 25.921875 0.0273438 L 43.605469 24.65625 L 17.683594 43.269531 Z M 0 18.644531 " clip-rule="nonzero"/></clipPath><clipPath id="b8b8457c57"><path d="M 19 8 L 22 8 L 22 11 L 19 11 Z M 19 8 " clip-rule="nonzero"/></clipPath><clipPath id="da7c6df185"><path d="M 0 18.644531 L 25.921875 0.0273438 L 43.605469 24.65625 L 17.683594 43.269531 Z M 0 18.644531 " clip-rule="nonzero"/></clipPath><clipPath id="d693984d09"><path d="M 0 18.644531 L 25.921875 0.0273438 L 43.605469 24.65625 L 17.683594 43.269531 Z M 0 18.644531 " clip-rule="nonzero"/></clipPath><clipPath id="24661728a6"><path d="M 23 8 L 26 8 L 26 11 L 23 11 Z M 23 8 " clip-rule="nonzero"/></clipPath><clipPath id="279ba7efbc"><path d="M 0 18.644531 L 25.921875 0.0273438 L 43.605469 24.65625 L 17.683594 43.269531 Z M 0 18.644531 " clip-rule="nonzero"/></clipPath><clipPath id="441e639245"><path d="M 0 18.644531 L 25.921875 0.0273438 L 43.605469 24.65625 L 17.683594 43.269531 Z M 0 18.644531 " clip-rule="nonzero"/></clipPath><clipPath id="ba4809406e"><path d="M 26 8 L 30 8 L 30 12 L 26 12 Z M 26 8 " clip-rule="nonzero"/></clipPath><clipPath id="23b674aba4"><path d="M 0 18.644531 L 25.921875 0.0273438 L 43.605469 24.65625 L 17.683594 43.269531 Z M 0 18.644531 " clip-rule="nonzero"/></clipPath><clipPath id="276e7bab0b"><path d="M 0 18.644531 L 25.921875 0.0273438 L 43.605469 24.65625 L 17.683594 43.269531 Z M 0 18.644531 " clip-rule="nonzero"/></clipPath><clipPath id="c380c1a7af"><path d="M 29 8 L 32 8 L 32 12 L 29 12 Z M 29 8 " clip-rule="nonzero"/></clipPath><clipPath id="eb79937022"><path d="M 0 18.644531 L 25.921875 0.0273438 L 43.605469 24.65625 L 17.683594 43.269531 Z M 0 18.644531 " clip-rule="nonzero"/></clipPath><clipPath id="c23d54a362"><path d="M 0 18.644531 L 25.921875 0.0273438 L 43.605469 24.65625 L 17.683594 43.269531 Z M 0 18.644531 " clip-rule="nonzero"/></clipPath><clipPath id="bbaecd5681"><path d="M 30 9 L 34 9 L 34 12 L 30 12 Z M 30 9 " clip-rule="nonzero"/></clipPath><clipPath id="e4ffb3478a"><path d="M 0 18.644531 L 25.921875 0.0273438 L 43.605469 24.65625 L 17.683594 43.269531 Z M 0 18.644531 " clip-rule="nonzero"/></clipPath><clipPath id="8432ed0a3a"><path d="M 0 18.644531 L 25.921875 0.0273438 L 43.605469 24.65625 L 17.683594 43.269531 Z M 0 18.644531 " clip-rule="nonzero"/></clipPath><clipPath id="0bfd3b6904"><path d="M 8 11 L 11 11 L 11 16 L 8 16 Z M 8 11 " clip-rule="nonzero"/></clipPath><clipPath id="d954f4fb5b"><path d="M 0 18.644531 L 25.921875 0.0273438 L 43.605469 24.65625 L 17.683594 43.269531 Z M 0 18.644531 " clip-rule="nonzero"/></clipPath><clipPath id="839770ecf3"><path d="M 0 18.644531 L 25.921875 0.0273438 L 43.605469 24.65625 L 17.683594 43.269531 Z M 0 18.644531 " clip-rule="nonzero"/></clipPath><clipPath id="47d00f0f6d"><path d="M 9 11 L 12 11 L 12 15 L 9 15 Z M 9 11 " clip-rule="nonzero"/></clipPath><clipPath id="b5ac18a9e1"><path d="M 0 18.644531 L 25.921875 0.0273438 L 43.605469 24.65625 L 17.683594 43.269531 Z M 0 18.644531 " clip-rule="nonzero"/></clipPath><clipPath id="583f6025e0"><path d="M 0 18.644531 L 25.921875 0.0273438 L 43.605469 24.65625 L 17.683594 43.269531 Z M 0 18.644531 " clip-rule="nonzero"/></clipPath><clipPath id="3fe27aacd5"><path d="M 11 11 L 15 11 L 15 15 L 11 15 Z M 11 11 " clip-rule="nonzero"/></clipPath><clipPath id="156f33a95f"><path d="M 0 18.644531 L 25.921875 0.0273438 L 43.605469 24.65625 L 17.683594 43.269531 Z M 0 18.644531 " clip-rule="nonzero"/></clipPath><clipPath id="60e5682c93"><path d="M 0 18.644531 L 25.921875 0.0273438 L 43.605469 24.65625 L 17.683594 43.269531 Z M 0 18.644531 " clip-rule="nonzero"/></clipPath><clipPath id="a0ff336f53"><path d="M 16 11 L 20 11 L 20 15 L 16 15 Z M 16 11 " clip-rule="nonzero"/></clipPath><clipPath id="f7ebefb5c2"><path d="M 0 18.644531 L 25.921875 0.0273438 L 43.605469 24.65625 L 17.683594 43.269531 Z M 0 18.644531 " clip-rule="nonzero"/></clipPath><clipPath id="e9d6f717df"><path d="M 0 18.644531 L 25.921875 0.0273438 L 43.605469 24.65625 L 17.683594 43.269531 Z M 0 18.644531 " clip-rule="nonzero"/></clipPath><clipPath id="762fea4d67"><path d="M 20 11 L 25 11 L 25 15 L 20 15 Z M 20 11 " clip-rule="nonzero"/></clipPath><clipPath id="6a6ec714a8"><path d="M 0 18.644531 L 25.921875 0.0273438 L 43.605469 24.65625 L 17.683594 43.269531 Z M 0 18.644531 " clip-rule="nonzero"/></clipPath><clipPath id="98a090a954"><path d="M 0 18.644531 L 25.921875 0.0273438 L 43.605469 24.65625 L 17.683594 43.269531 Z M 0 18.644531 " clip-rule="nonzero"/></clipPath><clipPath id="921764b368"><path d="M 25 11 L 29 11 L 29 15 L 25 15 Z M 25 11 " clip-rule="nonzero"/></clipPath><clipPath id="7ef2e56bc7"><path d="M 0 18.644531 L 25.921875 0.0273438 L 43.605469 24.65625 L 17.683594 43.269531 Z M 0 18.644531 " clip-rule="nonzero"/></clipPath><clipPath id="9cdd8351be"><path d="M 0 18.644531 L 25.921875 0.0273438 L 43.605469 24.65625 L 17.683594 43.269531 Z M 0 18.644531 " clip-rule="nonzero"/></clipPath><clipPath id="9a6af9c566"><path d="M 29 11 L 33 11 L 33 15 L 29 15 Z M 29 11 " clip-rule="nonzero"/></clipPath><clipPath id="251713ad6e"><path d="M 0 18.644531 L 25.921875 0.0273438 L 43.605469 24.65625 L 17.683594 43.269531 Z M 0 18.644531 " clip-rule="nonzero"/></clipPath><clipPath id="b140611393"><path d="M 0 18.644531 L 25.921875 0.0273438 L 43.605469 24.65625 L 17.683594 43.269531 Z M 0 18.644531 " clip-rule="nonzero"/></clipPath><clipPath id="a26123f47e"><path d="M 32 12 L 36 12 L 36 16 L 32 16 Z M 32 12 " clip-rule="nonzero"/></clipPath><clipPath id="e21deca04f"><path d="M 0 18.644531 L 25.921875 0.0273438 L 43.605469 24.65625 L 17.683594 43.269531 Z M 0 18.644531 " clip-rule="nonzero"/></clipPath><clipPath id="b29c0d8999"><path d="M 0 18.644531 L 25.921875 0.0273438 L 43.605469 24.65625 L 17.683594 43.269531 Z M 0 18.644531 " clip-rule="nonzero"/></clipPath><clipPath id="a91a808b71"><path d="M 34 12 L 37 12 L 37 16 L 34 16 Z M 34 12 " clip-rule="nonzero"/></clipPath><clipPath id="742dc7c8fe"><path d="M 0 18.644531 L 25.921875 0.0273438 L 43.605469 24.65625 L 17.683594 43.269531 Z M 0 18.644531 " clip-rule="nonzero"/></clipPath><clipPath id="34c4c035e7"><path d="M 0 18.644531 L 25.921875 0.0273438 L 43.605469 24.65625 L 17.683594 43.269531 Z M 0 18.644531 " clip-rule="nonzero"/></clipPath><clipPath id="5c79d0865f"><path d="M 7 15 L 9 15 L 9 19 L 7 19 Z M 7 15 " clip-rule="nonzero"/></clipPath><clipPath id="1141d61268"><path d="M 0 18.644531 L 25.921875 0.0273438 L 43.605469 24.65625 L 17.683594 43.269531 Z M 0 18.644531 " clip-rule="nonzero"/></clipPath><clipPath id="7cfab6b9e1"><path d="M 0 18.644531 L 25.921875 0.0273438 L 43.605469 24.65625 L 17.683594 43.269531 Z M 0 18.644531 " clip-rule="nonzero"/></clipPath><clipPath id="2089b68297"><path d="M 9 15 L 12 15 L 12 19 L 9 19 Z M 9 15 " clip-rule="nonzero"/></clipPath><clipPath id="4355531140"><path d="M 0 18.644531 L 25.921875 0.0273438 L 43.605469 24.65625 L 17.683594 43.269531 Z M 0 18.644531 " clip-rule="nonzero"/></clipPath><clipPath id="3d72db1f2d"><path d="M 0 18.644531 L 25.921875 0.0273438 L 43.605469 24.65625 L 17.683594 43.269531 Z M 0 18.644531 " clip-rule="nonzero"/></clipPath><clipPath id="c287ee2d09"><path d="M 12 14 L 17 14 L 17 19 L 12 19 Z M 12 14 " clip-rule="nonzero"/></clipPath><clipPath id="d4bfaca9cb"><path d="M 0 18.644531 L 25.921875 0.0273438 L 43.605469 24.65625 L 17.683594 43.269531 Z M 0 18.644531 " clip-rule="nonzero"/></clipPath><clipPath id="c529a362bd"><path d="M 0 18.644531 L 25.921875 0.0273438 L 43.605469 24.65625 L 17.683594 43.269531 Z M 0 18.644531 " clip-rule="nonzero"/></clipPath><clipPath id="bb98aafb47"><path d="M 17 14 L 22 14 L 22 19 L 17 19 Z M 17 14 " clip-rule="nonzero"/></clipPath><clipPath id="6253a681c6"><path d="M 0 18.644531 L 25.921875 0.0273438 L 43.605469 24.65625 L 17.683594 43.269531 Z M 0 18.644531 " clip-rule="nonzero"/></clipPath><clipPath id="dc18f675b1"><path d="M 0 18.644531 L 25.921875 0.0273438 L 43.605469 24.65625 L 17.683594 43.269531 Z M 0 18.644531 " clip-rule="nonzero"/></clipPath><clipPath id="b171ea3aba"><path d="M 28 15 L 32 15 L 32 19 L 28 19 Z M 28 15 " clip-rule="nonzero"/></clipPath><clipPath id="86bb856411"><path d="M 0 18.644531 L 25.921875 0.0273438 L 43.605469 24.65625 L 17.683594 43.269531 Z M 0 18.644531 " clip-rule="nonzero"/></clipPath><clipPath id="ba009ed30a"><path d="M 0 18.644531 L 25.921875 0.0273438 L 43.605469 24.65625 L 17.683594 43.269531 Z M 0 18.644531 " clip-rule="nonzero"/></clipPath><clipPath id="2487720b53"><path d="M 6 19 L 7 19 L 7 24 L 6 24 Z M 6 19 " clip-rule="nonzero"/></clipPath><clipPath id="1b3618399b"><path d="M 0 18.644531 L 25.921875 0.0273438 L 43.605469 24.65625 L 17.683594 43.269531 Z M 0 18.644531 " clip-rule="nonzero"/></clipPath><clipPath id="27b4aed9aa"><path d="M 0 18.644531 L 25.921875 0.0273438 L 43.605469 24.65625 L 17.683594 43.269531 Z M 0 18.644531 " clip-rule="nonzero"/></clipPath><clipPath id="49656d8b3f"><path d="M 7 19 L 10 19 L 10 24 L 7 24 Z M 7 19 " clip-rule="nonzero"/></clipPath><clipPath id="ee1f4bb2af"><path d="M 0 18.644531 L 25.921875 0.0273438 L 43.605469 24.65625 L 17.683594 43.269531 Z M 0 18.644531 " clip-rule="nonzero"/></clipPath><clipPath id="20ae902e84"><path d="M 0 18.644531 L 25.921875 0.0273438 L 43.605469 24.65625 L 17.683594 43.269531 Z M 0 18.644531 " clip-rule="nonzero"/></clipPath><clipPath id="612f9a92fe"><path d="M 10 19 L 14 19 L 14 24 L 10 24 Z M 10 19 " clip-rule="nonzero"/></clipPath><clipPath id="c7fd27f335"><path d="M 0 18.644531 L 25.921875 0.0273438 L 43.605469 24.65625 L 17.683594 43.269531 Z M 0 18.644531 " clip-rule="nonzero"/></clipPath><clipPath id="23aa9949a8"><path d="M 0 18.644531 L 25.921875 0.0273438 L 43.605469 24.65625 L 17.683594 43.269531 Z M 0 18.644531 " clip-rule="nonzero"/></clipPath><clipPath id="7507537130"><path d="M 14 19 L 19 19 L 19 24 L 14 24 Z M 14 19 " clip-rule="nonzero"/></clipPath><clipPath id="1cc185c58e"><path d="M 0 18.644531 L 25.921875 0.0273438 L 43.605469 24.65625 L 17.683594 43.269531 Z M 0 18.644531 " clip-rule="nonzero"/></clipPath><clipPath id="d249cf8e1b"><path d="M 0 18.644531 L 25.921875 0.0273438 L 43.605469 24.65625 L 17.683594 43.269531 Z M 0 18.644531 " clip-rule="nonzero"/></clipPath><clipPath id="1dec2debfa"><path d="M 20 19 L 25 19 L 25 24 L 20 24 Z M 20 19 " clip-rule="nonzero"/></clipPath><clipPath id="2cdbc66faf"><path d="M 0 18.644531 L 25.921875 0.0273438 L 43.605469 24.65625 L 17.683594 43.269531 Z M 0 18.644531 " clip-rule="nonzero"/></clipPath><clipPath id="dfcd75e76f"><path d="M 0 18.644531 L 25.921875 0.0273438 L 43.605469 24.65625 L 17.683594 43.269531 Z M 0 18.644531 " clip-rule="nonzero"/></clipPath><clipPath id="98e5266785"><path d="M 7 24 L 9 24 L 9 29 L 7 29 Z M 7 24 " clip-rule="nonzero"/></clipPath><clipPath id="6ffaf821bf"><path d="M 0 18.644531 L 25.921875 0.0273438 L 43.605469 24.65625 L 17.683594 43.269531 Z M 0 18.644531 " clip-rule="nonzero"/></clipPath><clipPath id="cacb4ace99"><path d="M 0 18.644531 L 25.921875 0.0273438 L 43.605469 24.65625 L 17.683594 43.269531 Z M 0 18.644531 " clip-rule="nonzero"/></clipPath><clipPath id="5f5c3349cf"><path d="M 8 24 L 12 24 L 12 29 L 8 29 Z M 8 24 " clip-rule="nonzero"/></clipPath><clipPath id="870cda6294"><path d="M 0 18.644531 L 25.921875 0.0273438 L 43.605469 24.65625 L 17.683594 43.269531 Z M 0 18.644531 " clip-rule="nonzero"/></clipPath><clipPath id="6fa1e8df78"><path d="M 0 18.644531 L 25.921875 0.0273438 L 43.605469 24.65625 L 17.683594 43.269531 Z M 0 18.644531 " clip-rule="nonzero"/></clipPath><clipPath id="50ee1c62fa"><path d="M 12 24 L 16 24 L 16 29 L 12 29 Z M 12 24 " clip-rule="nonzero"/></clipPath><clipPath id="2330dc1141"><path d="M 0 18.644531 L 25.921875 0.0273438 L 43.605469 24.65625 L 17.683594 43.269531 Z M 0 18.644531 " clip-rule="nonzero"/></clipPath><clipPath id="3194cbf59b"><path d="M 0 18.644531 L 25.921875 0.0273438 L 43.605469 24.65625 L 17.683594 43.269531 Z M 0 18.644531 " clip-rule="nonzero"/></clipPath><clipPath id="203b55909a"><path d="M 17 24 L 22 24 L 22 29 L 17 29 Z M 17 24 " clip-rule="nonzero"/></clipPath><clipPath id="e18f501adf"><path d="M 0 18.644531 L 25.921875 0.0273438 L 43.605469 24.65625 L 17.683594 43.269531 Z M 0 18.644531 " clip-rule="nonzero"/></clipPath><clipPath id="a5cffc8ece"><path d="M 0 18.644531 L 25.921875 0.0273438 L 43.605469 24.65625 L 17.683594 43.269531 Z M 0 18.644531 " clip-rule="nonzero"/></clipPath><clipPath id="986d9cfbc4"><path d="M 8 29 L 11 29 L 11 33 L 8 33 Z M 8 29 " clip-rule="nonzero"/></clipPath><clipPath id="661b8305e5"><path d="M 0 18.644531 L 25.921875 0.0273438 L 43.605469 24.65625 L 17.683594 43.269531 Z M 0 18.644531 " clip-rule="nonzero"/></clipPath><clipPath id="5cf5485f05"><path d="M 0 18.644531 L 25.921875 0.0273438 L 43.605469 24.65625 L 17.683594 43.269531 Z M 0 18.644531 " clip-rule="nonzero"/></clipPath><clipPath id="2ad509645d"><path d="M 9 29 L 12 29 L 12 33 L 9 33 Z M 9 29 " clip-rule="nonzero"/></clipPath><clipPath id="1fd4cbdb31"><path d="M 0 18.644531 L 25.921875 0.0273438 L 43.605469 24.65625 L 17.683594 43.269531 Z M 0 18.644531 " clip-rule="nonzero"/></clipPath><clipPath id="dd95fd959f"><path d="M 0 18.644531 L 25.921875 0.0273438 L 43.605469 24.65625 L 17.683594 43.269531 Z M 0 18.644531 " clip-rule="nonzero"/></clipPath><clipPath id="6d230f4309"><path d="M 11 28 L 15 28 L 15 33 L 11 33 Z M 11 28 " clip-rule="nonzero"/></clipPath><clipPath id="3dfca2c58c"><path d="M 0 18.644531 L 25.921875 0.0273438 L 43.605469 24.65625 L 17.683594 43.269531 Z M 0 18.644531 " clip-rule="nonzero"/></clipPath><clipPath id="d37921fdfe"><path d="M 0 18.644531 L 25.921875 0.0273438 L 43.605469 24.65625 L 17.683594 43.269531 Z M 0 18.644531 " clip-rule="nonzero"/></clipPath><clipPath id="e2d91f3879"><path d="M 11 32 L 14 32 L 14 36 L 11 36 Z M 11 32 " clip-rule="nonzero"/></clipPath><clipPath id="15c43ec297"><path d="M 0 18.644531 L 25.921875 0.0273438 L 43.605469 24.65625 L 17.683594 43.269531 Z M 0 18.644531 " clip-rule="nonzero"/></clipPath><clipPath id="97fc570c64"><path d="M 0 18.644531 L 25.921875 0.0273438 L 43.605469 24.65625 L 17.683594 43.269531 Z M 0 18.644531 " clip-rule="nonzero"/></clipPath><clipPath id="269f2955b3"><path d="M 12 32 L 16 32 L 16 36 L 12 36 Z M 12 32 " clip-rule="nonzero"/></clipPath><clipPath id="7c381e8cbb"><path d="M 0 18.644531 L 25.921875 0.0273438 L 43.605469 24.65625 L 17.683594 43.269531 Z M 0 18.644531 " clip-rule="nonzero"/></clipPath><clipPath id="3acab52752"><path d="M 0 18.644531 L 25.921875 0.0273438 L 43.605469 24.65625 L 17.683594 43.269531 Z M 0 18.644531 " clip-rule="nonzero"/></clipPath><clipPath id="527cb71396"><path d="M 15 32 L 19 32 L 19 36 L 15 36 Z M 15 32 " clip-rule="nonzero"/></clipPath><clipPath id="b907efaa9b"><path d="M 0 18.644531 L 25.921875 0.0273438 L 43.605469 24.65625 L 17.683594 43.269531 Z M 0 18.644531 " clip-rule="nonzero"/></clipPath><clipPath id="232717ccc2"><path d="M 0 18.644531 L 25.921875 0.0273438 L 43.605469 24.65625 L 17.683594 43.269531 Z M 0 18.644531 " clip-rule="nonzero"/></clipPath><clipPath id="d4efcf5022"><path d="M 18 32 L 22 32 L 22 36 L 18 36 Z M 18 32 " clip-rule="nonzero"/></clipPath><clipPath id="0d069933e0"><path d="M 0 18.644531 L 25.921875 0.0273438 L 43.605469 24.65625 L 17.683594 43.269531 Z M 0 18.644531 " clip-rule="nonzero"/></clipPath><clipPath id="0aa1829797"><path d="M 0 18.644531 L 25.921875 0.0273438 L 43.605469 24.65625 L 17.683594 43.269531 Z M 0 18.644531 " clip-rule="nonzero"/></clipPath><clipPath id="8378285ea9"><path d="M 14 35 L 19 35 L 19 38 L 14 38 Z M 14 35 " clip-rule="nonzero"/></clipPath><clipPath id="50ffd0c6fb"><path d="M 0 18.644531 L 25.921875 0.0273438 L 43.605469 24.65625 L 17.683594 43.269531 Z M 0 18.644531 " clip-rule="nonzero"/></clipPath><clipPath id="4f0e3c1345"><path d="M 0 18.644531 L 25.921875 0.0273438 L 43.605469 24.65625 L 17.683594 43.269531 Z M 0 18.644531 " clip-rule="nonzero"/></clipPath><clipPath id="82846c3609"><path d="M 16 35 L 20 35 L 20 38 L 16 38 Z M 16 35 " clip-rule="nonzero"/></clipPath><clipPath id="db8264982b"><path d="M 0 18.644531 L 25.921875 0.0273438 L 43.605469 24.65625 L 17.683594 43.269531 Z M 0 18.644531 " clip-rule="nonzero"/></clipPath><clipPath id="f558054141"><path d="M 0 18.644531 L 25.921875 0.0273438 L 43.605469 24.65625 L 17.683594 43.269531 Z M 0 18.644531 " clip-rule="nonzero"/></clipPath><clipPath id="6f2e0ae15d"><path d="M 18 35 L 21 35 L 21 38 L 18 38 Z M 18 35 " clip-rule="nonzero"/></clipPath><clipPath id="cbea6e1c51"><path d="M 0 18.644531 L 25.921875 0.0273438 L 43.605469 24.65625 L 17.683594 43.269531 Z M 0 18.644531 " clip-rule="nonzero"/></clipPath><clipPath id="be0e791eb9"><path d="M 0 18.644531 L 25.921875 0.0273438 L 43.605469 24.65625 L 17.683594 43.269531 Z M 0 18.644531 " clip-rule="nonzero"/></clipPath><clipPath id="7788ee2d61"><path d="M 21 35 L 23 35 L 23 38 L 21 38 Z M 21 35 " clip-rule="nonzero"/></clipPath><clipPath id="689d3637ed"><path d="M 0 18.644531 L 25.921875 0.0273438 L 43.605469 24.65625 L 17.683594 43.269531 Z M 0 18.644531 " clip-rule="nonzero"/></clipPath><clipPath id="98e09e6ab4"><path d="M 0 18.644531 L 25.921875 0.0273438 L 43.605469 24.65625 L 17.683594 43.269531 Z M 0 18.644531 " clip-rule="nonzero"/></clipPath><clipPath id="e68d6f9cf9"><path d="M 23 35 L 26 35 L 26 38 L 23 38 Z M 23 35 " clip-rule="nonzero"/></clipPath><clipPath id="6118b1341c"><path d="M 0 18.644531 L 25.921875 0.0273438 L 43.605469 24.65625 L 17.683594 43.269531 Z M 0 18.644531 " clip-rule="nonzero"/></clipPath><clipPath id="11d15fde9f"><path d="M 0 18.644531 L 25.921875 0.0273438 L 43.605469 24.65625 L 17.683594 43.269531 Z M 0 18.644531 " clip-rule="nonzero"/></clipPath><clipPath id="a2d1cf0e8e"><path d="M 24 35 L 28 35 L 28 38 L 24 38 Z M 24 35 " clip-rule="nonzero"/></clipPath><clipPath id="edba371f0a"><path d="M 0 18.644531 L 25.921875 0.0273438 L 43.605469 24.65625 L 17.683594 43.269531 Z M 0 18.644531 " clip-rule="nonzero"/></clipPath><clipPath id="c00c5813d6"><path d="M 0 18.644531 L 25.921875 0.0273438 L 43.605469 24.65625 L 17.683594 43.269531 Z M 0 18.644531 " clip-rule="nonzero"/></clipPath></defs><g clip-path="url(#81c16ce985)"><g clip-path="url(#c293b6529e)"><g clip-path="url(#abb686ed1a)"><path fill="#328281" d="M 17.164062 7.515625 C 15.53125 8.25 15.433594 8.296875 15.332031 8.25 C 15.449219 7.910156 17.75 7.046875 18.582031 6.921875 C 18.546875 6.949219 18.546875 6.949219 18.378906 7.011719 C 18.042969 7.136719 17.710938 7.273438 17.164062 7.515625 " fill-opacity="1" fill-rule="nonzero"/></g></g></g><g clip-path="url(#9205a32c99)"><g clip-path="url(#9f69c1303d)"><g clip-path="url(#b26542d7ea)"><path fill="#328281" d="M 18.804688 7.4375 C 17.527344 8.210938 16.847656 8.253906 16.921875 8.019531 C 17.046875 7.601562 18.804688 6.917969 19.53125 6.859375 C 19.546875 6.859375 19.570312 6.859375 19.589844 6.863281 C 19.59375 6.871094 19.597656 6.878906 19.601562 6.886719 C 19.535156 6.996094 18.832031 7.421875 18.804688 7.4375 " fill-opacity="1" fill-rule="nonzero"/></g></g></g><g clip-path="url(#3e22b58864)"><g clip-path="url(#562183f245)"><g clip-path="url(#616792401e)"><path fill="#328281" d="M 20.960938 7.414062 C 20.410156 8.128906 19.257812 8.257812 19.203125 7.859375 C 19.140625 7.421875 20.292969 6.855469 20.917969 6.828125 C 21.390625 6.847656 20.976562 7.390625 20.960938 7.414062 " fill-opacity="1" fill-rule="nonzero"/></g></g></g><g clip-path="url(#57ca4d383a)"><g clip-path="url(#78ab3944fd)"><g clip-path="url(#05e2048e6c)"><path fill="#328281" d="M 23.230469 7.449219 C 23.34375 8.03125 22.433594 8.292969 21.921875 7.957031 C 21.382812 7.601562 21.773438 6.96875 22.300781 6.855469 C 22.367188 6.839844 22.417969 6.839844 22.464844 6.839844 C 22.871094 6.859375 23.179688 7.171875 23.230469 7.449219 " fill-opacity="1" fill-rule="nonzero"/></g></g></g><g clip-path="url(#31a15e8192)"><g clip-path="url(#75cd839fbe)"><g clip-path="url(#1e83c7af7e)"><path fill="#328281" d="M 25.390625 7.527344 C 25.785156 7.894531 25.660156 8.164062 25.296875 8.1875 C 24.421875 8.238281 23.519531 7.199219 23.808594 6.925781 C 23.855469 6.882812 23.929688 6.882812 23.984375 6.882812 C 24.351562 6.910156 25.019531 7.183594 25.390625 7.527344 " fill-opacity="1" fill-rule="nonzero"/></g></g></g><g clip-path="url(#773882707f)"><g clip-path="url(#b3d262b6c8)"><g clip-path="url(#ca16da3774)"><path fill="#328281" d="M 27.207031 7.648438 C 27.808594 7.992188 27.964844 8.261719 27.765625 8.316406 C 27.632812 8.351562 27.269531 8.28125 26.691406 7.972656 C 26.203125 7.710938 25.246094 7.058594 25.25 6.96875 C 25.265625 6.957031 25.273438 6.957031 25.320312 6.957031 C 25.667969 6.996094 26.554688 7.28125 27.207031 7.648438 " fill-opacity="1" fill-rule="nonzero"/></g></g></g><g clip-path="url(#3c59fc4410)"><g clip-path="url(#fc548c06de)"><g clip-path="url(#159e8c2f2f)"><path fill="#328281" d="M 28.410156 7.800781 C 28.960938 8.058594 29.535156 8.394531 29.507812 8.496094 C 29.476562 8.507812 29.414062 8.527344 28.925781 8.3125 C 28.90625 8.300781 26.328125 7.078125 26.296875 7.058594 L 26.316406 7.054688 C 26.496094 7.089844 27.445312 7.351562 28.410156 7.800781 " fill-opacity="1" fill-rule="nonzero"/></g></g></g><g clip-path="url(#e60520251c)"><g clip-path="url(#8b8efcdbc2)"><g clip-path="url(#f2f1c65f3b)"><path fill="#328281" d="M 12.820312 10.003906 C 11.816406 10.875 11.253906 11.277344 11.148438 11.207031 C 11.105469 10.832031 13.371094 9.042969 14.003906 8.855469 L 14.027344 8.855469 C 14.03125 8.898438 14.039062 8.949219 12.820312 10.003906 " fill-opacity="1" fill-rule="nonzero"/></g></g></g><g clip-path="url(#efe116ff9a)"><g clip-path="url(#3a7844bd18)"><g clip-path="url(#0f2b6074e4)"><path fill="#328281" d="M 14.914062 9.839844 C 13.925781 10.859375 12.804688 11.296875 12.792969 10.824219 C 12.773438 10.179688 14.585938 8.8125 15.410156 8.703125 C 16.007812 8.707031 14.925781 9.828125 14.914062 9.839844 " fill-opacity="1" fill-rule="nonzero"/></g></g></g><g clip-path="url(#943b56ac18)"><g clip-path="url(#2bc955a086)"><g clip-path="url(#722e8828c7)"><path fill="#328281" d="M 18.132812 9.753906 C 17.4375 10.863281 15.824219 11.230469 15.621094 10.53125 C 15.421875 9.847656 16.761719 8.679688 17.828125 8.605469 C 18.65625 8.632812 18.332031 9.445312 18.132812 9.753906 " fill-opacity="1" fill-rule="nonzero"/></g></g></g><g clip-path="url(#b8b8457c57)"><g clip-path="url(#da7c6df185)"><g clip-path="url(#d693984d09)"><path fill="#328281" d="M 21.828125 9.761719 C 21.59375 10.945312 19.824219 11.203125 19.347656 10.390625 C 18.9375 9.6875 19.828125 8.625 20.863281 8.585938 C 21.679688 8.628906 21.921875 9.300781 21.828125 9.761719 " fill-opacity="1" fill-rule="nonzero"/></g></g></g><g clip-path="url(#24661728a6)"><g clip-path="url(#279ba7efbc)"><g clip-path="url(#441e639245)"><path fill="#328281" d="M 25.519531 9.855469 C 25.753906 10.828125 24.535156 11.21875 23.664062 10.6875 C 22.703125 10.101562 22.859375 8.902344 23.695312 8.675781 C 23.8125 8.644531 23.917969 8.644531 24.003906 8.640625 C 24.855469 8.707031 25.414062 9.40625 25.519531 9.855469 " fill-opacity="1" fill-rule="nonzero"/></g></g></g><g clip-path="url(#ba4809406e)"><g clip-path="url(#23b674aba4)"><g clip-path="url(#276e7bab0b)"><path fill="#328281" d="M 28.835938 10.027344 C 29.292969 10.746094 28.933594 11.253906 28.109375 11.054688 C 26.871094 10.75 25.992188 9.175781 26.625 8.820312 C 26.726562 8.761719 26.828125 8.761719 26.933594 8.761719 C 27.664062 8.839844 28.492188 9.476562 28.835938 10.027344 " fill-opacity="1" fill-rule="nonzero"/></g></g></g><g clip-path="url(#c380c1a7af)"><g clip-path="url(#eb79937022)"><g clip-path="url(#c23d54a362)"><path fill="#328281" d="M 31.394531 10.257812 C 31.984375 10.882812 32.0625 11.375 31.570312 11.328125 C 30.574219 11.234375 28.804688 9.226562 29.183594 8.964844 C 29.222656 8.9375 29.289062 8.9375 29.34375 8.941406 C 29.921875 9.035156 30.871094 9.695312 31.394531 10.257812 " fill-opacity="1" fill-rule="nonzero"/></g></g></g><g clip-path="url(#bbaecd5681)"><g clip-path="url(#e4ffb3478a)"><g clip-path="url(#8432ed0a3a)"><path fill="#328281" d="M 32.691406 10.507812 C 33.152344 10.929688 33.636719 11.453125 33.609375 11.601562 C 33.316406 11.773438 30.808594 9.195312 30.800781 9.160156 C 30.8125 9.15625 30.824219 9.15625 30.835938 9.152344 C 31.082031 9.234375 31.90625 9.789062 32.691406 10.507812 " fill-opacity="1" fill-rule="nonzero"/></g></g></g><g clip-path="url(#0bfd3b6904)"><g clip-path="url(#d954f4fb5b)"><g clip-path="url(#839770ecf3)"><path fill="#328281" d="M 9.320312 13.441406 C 8.363281 14.871094 8.238281 14.972656 8.191406 15.011719 L 8.175781 15 C 8.191406 14.953125 8.203125 14.914062 8.285156 14.761719 L 8.289062 14.757812 C 9.117188 13.355469 9.117188 13.355469 9.617188 12.707031 L 10.140625 12.050781 C 10.246094 11.929688 10.273438 11.90625 10.304688 11.878906 L 10.316406 11.890625 C 10.292969 11.945312 10.253906 12.039062 9.320312 13.441406 " fill-opacity="1" fill-rule="nonzero"/></g></g></g><g clip-path="url(#47d00f0f6d)"><g clip-path="url(#b5ac18a9e1)"><g clip-path="url(#583f6025e0)"><path fill="#328281" d="M 11.210938 13.195312 C 10.496094 14.347656 9.507812 15.078125 9.355469 14.566406 C 9.152344 13.886719 10.6875 11.804688 11.515625 11.640625 C 12 11.636719 11.585938 12.59375 11.210938 13.195312 " fill-opacity="1" fill-rule="nonzero"/></g></g></g><g clip-path="url(#3fe27aacd5)"><g clip-path="url(#156f33a95f)"><g clip-path="url(#60e5682c93)"><path fill="#328281" d="M 14.664062 13.035156 C 14.023438 14.34375 12.3125 15.019531 12.011719 14.078125 C 11.742188 13.234375 12.949219 11.582031 14.175781 11.460938 C 15.035156 11.480469 14.976562 12.390625 14.664062 13.035156 " fill-opacity="1" fill-rule="nonzero"/></g></g></g><g clip-path="url(#a0ff336f53)"><g clip-path="url(#f7ebefb5c2)"><g clip-path="url(#e9d6f717df)"><path fill="#328281" d="M 19.210938 12.984375 C 18.824219 14.363281 16.757812 14.941406 16.140625 13.839844 C 15.644531 12.957031 16.609375 11.457031 18.070312 11.378906 C 19.214844 11.429688 19.378906 12.390625 19.210938 12.984375 " fill-opacity="1" fill-rule="nonzero"/></g></g></g><g clip-path="url(#762fea4d67)"><g clip-path="url(#6a6ec714a8)"><g clip-path="url(#98a090a954)"><path fill="#328281" d="M 24.003906 13.050781 C 23.945312 14.386719 22.121094 14.960938 21.128906 13.957031 C 20.257812 13.070312 20.84375 11.449219 22.394531 11.40625 C 23.550781 11.480469 24.03125 12.414062 24.003906 13.050781 " fill-opacity="1" fill-rule="nonzero"/></g></g></g><g clip-path="url(#921764b368)"><g clip-path="url(#7ef2e56bc7)"><g clip-path="url(#9cdd8351be)"><path fill="#328281" d="M 28.558594 13.222656 C 28.785156 14.414062 27.511719 15.027344 26.363281 14.28125 C 25.050781 13.433594 25.25 11.738281 26.375 11.546875 C 26.457031 11.53125 26.566406 11.53125 26.652344 11.53125 C 27.761719 11.628906 28.433594 12.578125 28.558594 13.222656 " fill-opacity="1" fill-rule="nonzero"/></g></g></g><g clip-path="url(#9a6af9c566)"><g clip-path="url(#251713ad6e)"><g clip-path="url(#b140611393)"><path fill="#328281" d="M 32.382812 13.480469 C 32.78125 14.480469 32.226562 15.117188 31.285156 14.738281 C 29.847656 14.164062 29.210938 12.101562 30.085938 11.777344 C 30.195312 11.734375 30.308594 11.738281 30.398438 11.738281 C 31.332031 11.859375 32.132812 12.847656 32.382812 13.480469 " fill-opacity="1" fill-rule="nonzero"/></g></g></g><g clip-path="url(#a26123f47e)"><g clip-path="url(#e21deca04f)"><g clip-path="url(#b29c0d8999)"><path fill="#328281" d="M 34.929688 13.796875 C 35.417969 14.6875 35.398438 15.304688 34.882812 15.148438 C 33.933594 14.855469 32.410156 12.257812 33.058594 12.023438 C 33.09375 12.011719 33.144531 12.011719 33.183594 12.015625 C 33.789062 12.152344 34.566406 13.140625 34.929688 13.796875 " fill-opacity="1" fill-rule="nonzero"/></g></g></g><g clip-path="url(#a91a808b71)"><g clip-path="url(#742dc7c8fe)"><g clip-path="url(#34c4c035e7)"><path fill="#328281" d="M 36.390625 15.355469 C 36.433594 15.441406 36.441406 15.46875 36.445312 15.496094 L 36.433594 15.507812 C 36.214844 15.3125 34.511719 12.558594 34.417969 12.316406 L 34.429688 12.304688 C 34.460938 12.335938 34.476562 12.351562 34.5625 12.453125 L 35.085938 13.152344 C 35.972656 14.511719 35.972656 14.511719 36.339844 15.246094 L 36.363281 15.296875 C 36.371094 15.3125 36.382812 15.335938 36.390625 15.355469 " fill-opacity="1" fill-rule="nonzero"/></g></g></g><g clip-path="url(#5c79d0865f)"><g clip-path="url(#1141d61268)"><g clip-path="url(#7cfab6b9e1)"><path fill="#328281" d="M 8.347656 17.175781 C 7.929688 18.441406 7.320312 19.292969 7.140625 18.863281 C 6.894531 18.257812 7.789062 15.550781 8.46875 15.308594 C 8.835938 15.300781 8.589844 16.449219 8.347656 17.175781 " fill-opacity="1" fill-rule="nonzero"/></g></g></g><g clip-path="url(#2089b68297)"><g clip-path="url(#4355531140)"><g clip-path="url(#3d72db1f2d)"><path fill="#328281" d="M 11.394531 16.941406 C 10.9375 18.429688 9.632812 19.238281 9.175781 18.3125 C 8.710938 17.363281 9.605469 15.226562 10.78125 15.058594 C 11.597656 15.070312 11.632812 16.164062 11.394531 16.941406 " fill-opacity="1" fill-rule="nonzero"/></g></g></g><g clip-path="url(#c287ee2d09)"><g clip-path="url(#d4bfaca9cb)"><g clip-path="url(#c529a362bd)"><path fill="#328281" d="M 16.074219 16.816406 C 15.679688 18.453125 13.597656 19.140625 12.886719 17.867188 C 12.289062 16.796875 13.1875 15.015625 14.757812 14.898438 C 16.042969 14.941406 16.246094 16.097656 16.074219 16.816406 " fill-opacity="1" fill-rule="nonzero"/></g></g></g><g clip-path="url(#bb98aafb47)"><g clip-path="url(#6253a681c6)"><g clip-path="url(#dc18f675b1)"><path fill="#328281" d="M 21.441406 16.828125 C 21.210938 18.484375 19.027344 19.105469 18.054688 17.796875 C 17.261719 16.726562 18.042969 14.9375 19.742188 14.867188 C 21.09375 14.941406 21.546875 16.058594 21.441406 16.828125 " fill-opacity="1" fill-rule="nonzero"/></g></g></g><g clip-path="url(#b171ea3aba)"><g clip-path="url(#86bb856411)"><g clip-path="url(#ba009ed30a)"><path fill="#328281" d="M 31.628906 17.210938 C 31.757812 18.695312 30.292969 19.347656 29.144531 18.3125 C 27.925781 17.214844 28.195312 15.238281 29.574219 15.15625 C 29.621094 15.152344 29.683594 15.15625 29.730469 15.15625 C 30.929688 15.289062 31.5625 16.4375 31.628906 17.210938 " fill-opacity="1" fill-rule="nonzero"/></g></g></g><g clip-path="url(#2487720b53)"><g clip-path="url(#1b3618399b)"><g clip-path="url(#27b4aed9aa)"><path fill="#328281" d="M 6.792969 21.992188 C 6.777344 22.695312 6.703125 23.894531 6.546875 23.910156 C 6.496094 23.863281 6.441406 23.71875 6.402344 22.988281 L 6.390625 22 L 6.457031 20.792969 C 6.535156 20.003906 6.605469 19.925781 6.640625 19.890625 L 6.660156 19.890625 C 6.804688 20.027344 6.8125 21.277344 6.792969 21.992188 " fill-opacity="1" fill-rule="nonzero"/></g></g></g><g clip-path="url(#49656d8b3f)"><g clip-path="url(#ee1f4bb2af)"><g clip-path="url(#20ae902e84)"><path fill="#328281" d="M 9.03125 21.703125 C 8.945312 23.125 8.257812 24.015625 7.722656 23.402344 C 7.007812 22.585938 7.195312 19.804688 8.203125 19.578125 C 8.863281 19.582031 9.085938 20.824219 9.03125 21.703125 " fill-opacity="1" fill-rule="nonzero"/></g></g></g><g clip-path="url(#612f9a92fe)"><g clip-path="url(#c7fd27f335)"><g clip-path="url(#23aa9949a8)"><path fill="#328281" d="M 13.113281 21.507812 C 12.957031 23.171875 11.386719 23.972656 10.53125 22.832031 C 9.691406 21.703125 10.191406 19.507812 11.640625 19.351562 C 12.792969 19.382812 13.195312 20.632812 13.113281 21.507812 " fill-opacity="1" fill-rule="nonzero"/></g></g></g><g clip-path="url(#7507537130)"><g clip-path="url(#1cc185c58e)"><g clip-path="url(#d249cf8e1b)"><path fill="#328281" d="M 18.488281 21.449219 C 18.292969 23.210938 16.207031 23.898438 15.152344 22.546875 C 14.230469 21.363281 14.898438 19.351562 16.671875 19.246094 C 18.167969 19.3125 18.582031 20.632812 18.488281 21.449219 " fill-opacity="1" fill-rule="nonzero"/></g></g></g><g clip-path="url(#1dec2debfa)"><g clip-path="url(#2cdbc66faf)"><g clip-path="url(#dfcd75e76f)"><path fill="#328281" d="M 24.15625 21.527344 C 23.953125 23.300781 21.785156 23.933594 20.699219 22.546875 C 19.75 21.335938 20.4375 19.339844 22.261719 19.277344 C 23.820312 19.386719 24.253906 20.714844 24.15625 21.527344 " fill-opacity="1" fill-rule="nonzero"/></g></g></g><g clip-path="url(#98e5266785)"><g clip-path="url(#6ffaf821bf)"><g clip-path="url(#cacb4ace99)"><path fill="#328281" d="M 8.382812 26.824219 C 8.644531 27.84375 8.628906 28.78125 8.191406 28.492188 C 7.527344 28.050781 6.59375 25.101562 7.257812 24.832031 C 7.679688 24.828125 8.171875 25.992188 8.382812 26.824219 " fill-opacity="1" fill-rule="nonzero"/></g></g></g><g clip-path="url(#5f5c3349cf)"><g clip-path="url(#870cda6294)"><g clip-path="url(#6fa1e8df78)"><path fill="#328281" d="M 11.382812 26.59375 C 11.582031 27.882812 10.914062 28.664062 10.085938 28.113281 C 8.890625 27.316406 8.570312 24.839844 9.628906 24.578125 C 9.664062 24.570312 9.710938 24.566406 9.746094 24.5625 C 10.660156 24.578125 11.253906 25.757812 11.382812 26.59375 " fill-opacity="1" fill-rule="nonzero"/></g></g></g><g clip-path="url(#50ee1c62fa)"><g clip-path="url(#2330dc1141)"><g clip-path="url(#3194cbf59b)"><path fill="#328281" d="M 15.996094 26.46875 C 16.035156 27.996094 14.507812 28.675781 13.363281 27.636719 C 12.289062 26.664062 12.265625 24.527344 14.023438 24.390625 C 15.347656 24.4375 15.972656 25.632812 15.996094 26.46875 " fill-opacity="1" fill-rule="nonzero"/></g></g></g><g clip-path="url(#203b55909a)"><g clip-path="url(#e18f501adf)"><g clip-path="url(#a5cffc8ece)"><path fill="#328281" d="M 21.285156 26.480469 C 21.113281 28.191406 19.058594 28.707031 18.003906 27.300781 C 17.136719 26.152344 17.707031 24.433594 19.382812 24.355469 C 20.832031 24.4375 21.367188 25.648438 21.285156 26.480469 " fill-opacity="1" fill-rule="nonzero"/></g></g></g><g clip-path="url(#986d9cfbc4)"><g clip-path="url(#661b8305e5)"><g clip-path="url(#5cf5485f05)"><path fill="#328281" d="M 9.527344 31.074219 C 10.089844 31.949219 10.351562 32.4375 10.304688 32.515625 C 9.976562 32.542969 8.023438 29.625 8.195312 29.363281 C 8.402344 29.34375 9.339844 30.785156 9.527344 31.074219 " fill-opacity="1" fill-rule="nonzero"/></g></g></g><g clip-path="url(#2ad509645d)"><g clip-path="url(#1fd4cbdb31)"><g clip-path="url(#dd95fd959f)"><path fill="#328281" d="M 11.34375 30.835938 C 11.75 31.648438 11.859375 32.40625 11.328125 32.265625 C 10.332031 32.003906 8.875 29.578125 9.449219 29.136719 C 9.484375 29.109375 9.542969 29.09375 9.585938 29.085938 C 10.152344 29.085938 10.914062 29.988281 11.34375 30.835938 " fill-opacity="1" fill-rule="nonzero"/></g></g></g><g clip-path="url(#6d230f4309)"><g clip-path="url(#3dfca2c58c)"><g clip-path="url(#d37921fdfe)"><path fill="#328281" d="M 14.660156 30.679688 C 14.96875 31.742188 14.394531 32.519531 13.308594 31.882812 C 11.90625 31.058594 11.386719 29.105469 12.511719 28.894531 C 12.550781 28.890625 12.601562 28.886719 12.640625 28.882812 C 13.679688 28.90625 14.445312 29.949219 14.660156 30.679688 " fill-opacity="1" fill-rule="nonzero"/></g></g></g><g clip-path="url(#e2d91f3879)"><g clip-path="url(#15c43ec297)"><g clip-path="url(#97fc570c64)"><path fill="#328281" d="M 12.957031 34.226562 C 13.683594 34.925781 13.992188 35.292969 13.871094 35.324219 C 13.371094 35.449219 10.742188 33.136719 11.058594 32.855469 C 11.066406 32.847656 11.082031 32.84375 11.089844 32.839844 C 11.464844 32.832031 12.519531 33.808594 12.957031 34.226562 " fill-opacity="1" fill-rule="nonzero"/></g></g></g><g clip-path="url(#269f2955b3)"><g clip-path="url(#7c381e8cbb)"><g clip-path="url(#3acab52752)"><path fill="#328281" d="M 14.929688 34.074219 C 15.253906 34.503906 15.667969 35.21875 15.152344 35.175781 C 14.226562 35.097656 12.203125 33.253906 12.714844 32.722656 C 12.769531 32.664062 12.847656 32.652344 12.914062 32.640625 C 13.5625 32.652344 14.414062 33.390625 14.929688 34.074219 " fill-opacity="1" fill-rule="nonzero"/></g></g></g><g clip-path="url(#527cb71396)"><g clip-path="url(#b907efaa9b)"><g clip-path="url(#232717ccc2)"><path fill="#328281" d="M 17.960938 33.992188 C 18.265625 34.820312 17.890625 35.398438 16.871094 34.90625 C 15.554688 34.269531 14.898438 32.816406 15.808594 32.550781 C 15.878906 32.527344 15.976562 32.519531 16.050781 32.515625 C 17.066406 32.550781 17.75 33.417969 17.960938 33.992188 " fill-opacity="1" fill-rule="nonzero"/></g></g></g><g clip-path="url(#d4efcf5022)"><g clip-path="url(#0d069933e0)"><g clip-path="url(#0aa1829797)"><path fill="#328281" d="M 21.4375 34 C 21.382812 35.070312 20.222656 35.507812 19.328125 34.453125 C 18.636719 33.640625 18.832031 32.542969 19.980469 32.488281 C 20.933594 32.542969 21.46875 33.300781 21.4375 34 " fill-opacity="1" fill-rule="nonzero"/></g></g></g><g clip-path="url(#8378285ea9)"><g clip-path="url(#50ffd0c6fb)"><g clip-path="url(#4f0e3c1345)"><path fill="#328281" d="M 17.03125 36.617188 C 18.113281 37.226562 18.113281 37.226562 18.148438 37.261719 C 18.144531 37.265625 18.136719 37.273438 18.132812 37.277344 C 17.335938 37.269531 14.59375 35.878906 14.945312 35.664062 C 14.957031 35.65625 14.972656 35.65625 14.980469 35.652344 C 15.324219 35.65625 16.117188 36.101562 17.03125 36.617188 " fill-opacity="1" fill-rule="nonzero"/></g></g></g><g clip-path="url(#82846c3609)"><g clip-path="url(#db8264982b)"><g clip-path="url(#f558054141)"><path fill="#328281" d="M 18.550781 36.546875 C 19.308594 37.203125 19.121094 37.214844 19.0625 37.21875 C 18.429688 37.25 16.15625 35.976562 16.523438 35.59375 C 16.5625 35.554688 16.636719 35.546875 16.6875 35.539062 C 17.371094 35.558594 18.289062 36.316406 18.550781 36.546875 " fill-opacity="1" fill-rule="nonzero"/></g></g></g><g clip-path="url(#6f2e0ae15d)"><g clip-path="url(#cbea6e1c51)"><g clip-path="url(#be0e791eb9)"><path fill="#328281" d="M 20.554688 36.523438 C 20.644531 36.746094 20.867188 37.445312 20.007812 37.078125 C 19.003906 36.648438 18.40625 35.785156 18.941406 35.535156 C 19.023438 35.496094 19.117188 35.492188 19.1875 35.484375 C 19.855469 35.519531 20.363281 36.046875 20.554688 36.523438 " fill-opacity="1" fill-rule="nonzero"/></g></g></g><g clip-path="url(#7788ee2d61)"><g clip-path="url(#689d3637ed)"><g clip-path="url(#98e09e6ab4)"><path fill="#328281" d="M 22.664062 36.554688 C 22.382812 37.304688 21.617188 37.476562 21.25 36.609375 C 21.03125 36.097656 21.265625 35.527344 21.964844 35.503906 C 22.628906 35.550781 22.84375 36.074219 22.664062 36.554688 " fill-opacity="1" fill-rule="nonzero"/></g></g></g><g clip-path="url(#e68d6f9cf9)"><g clip-path="url(#6118b1341c)"><g clip-path="url(#11d15fde9f)"><path fill="#328281" d="M 24.667969 36.628906 C 24.4375 36.832031 23.140625 37.699219 23.21875 36.929688 C 23.269531 36.386719 23.875 35.597656 24.695312 35.582031 C 25.308594 35.644531 25.175781 36.183594 24.667969 36.628906 " fill-opacity="1" fill-rule="nonzero"/></g></g></g><g clip-path="url(#a2d1cf0e8e)"><g clip-path="url(#edba371f0a)"><g clip-path="url(#c00c5813d6)"><path fill="#328281" d="M 26.351562 36.742188 C 25.6875 37.101562 24.617188 37.453125 24.65625 37.253906 C 24.695312 37.074219 26.199219 35.710938 27.101562 35.714844 C 27.523438 35.78125 27.191406 36.171875 26.867188 36.417969 C 26.722656 36.523438 26.550781 36.636719 26.351562 36.742188 " fill-opacity="1" fill-rule="nonzero"/></g></g></g><g fill="#8a9ebb" fill-opacity="1"><g transform="translate(30.727041, 40.343178)"><g><path d="M 2.25 -2.359375 C 2.46875 -2.328125 2.6875 -2.285156 2.90625 -2.234375 C 3.132812 -2.191406 3.335938 -2.128906 3.515625 -2.046875 C 3.703125 -1.960938 3.847656 -1.847656 3.953125 -1.703125 C 4.066406 -1.566406 4.125 -1.382812 4.125 -1.15625 C 4.125 -0.832031 4.050781 -0.585938 3.90625 -0.421875 C 3.757812 -0.253906 3.546875 -0.140625 3.265625 -0.078125 C 2.984375 -0.0234375 2.644531 0 2.25 0 C 1.363281 0 0.765625 -0.15625 0.453125 -0.46875 C 0.316406 -0.601562 0.238281 -0.742188 0.21875 -0.890625 C 0.195312 -1.046875 0.1875 -1.171875 0.1875 -1.265625 L 0.1875 -1.34375 L 1.265625 -1.34375 L 1.265625 -1.3125 C 1.265625 -1.144531 1.332031 -1.019531 1.46875 -0.9375 C 1.613281 -0.863281 1.863281 -0.828125 2.21875 -0.828125 C 2.351562 -0.828125 2.484375 -0.832031 2.609375 -0.84375 C 2.734375 -0.863281 2.835938 -0.894531 2.921875 -0.9375 C 3.003906 -0.988281 3.046875 -1.054688 3.046875 -1.140625 C 3.046875 -1.234375 3.003906 -1.304688 2.921875 -1.359375 C 2.847656 -1.410156 2.75 -1.445312 2.625 -1.46875 C 2.507812 -1.5 2.382812 -1.519531 2.25 -1.53125 C 2.21875 -1.53125 2.1875 -1.53125 2.15625 -1.53125 C 2.132812 -1.539062 2.109375 -1.546875 2.078125 -1.546875 C 1.703125 -1.597656 1.378906 -1.664062 1.109375 -1.75 C 0.847656 -1.832031 0.644531 -1.945312 0.5 -2.09375 C 0.351562 -2.25 0.28125 -2.457031 0.28125 -2.71875 C 0.28125 -2.851562 0.300781 -2.988281 0.34375 -3.125 C 0.394531 -3.269531 0.484375 -3.398438 0.609375 -3.515625 C 0.742188 -3.640625 0.925781 -3.734375 1.15625 -3.796875 C 1.394531 -3.867188 1.703125 -3.90625 2.078125 -3.90625 C 2.472656 -3.90625 2.800781 -3.863281 3.0625 -3.78125 C 3.320312 -3.707031 3.519531 -3.601562 3.65625 -3.46875 C 3.789062 -3.34375 3.882812 -3.203125 3.9375 -3.046875 C 3.988281 -2.898438 4.015625 -2.753906 4.015625 -2.609375 L 4.015625 -2.5625 L 2.953125 -2.5625 L 2.953125 -2.609375 C 2.953125 -2.753906 2.882812 -2.863281 2.75 -2.9375 C 2.613281 -3.019531 2.390625 -3.0625 2.078125 -3.0625 C 1.878906 -3.0625 1.726562 -3.039062 1.625 -3 C 1.519531 -2.96875 1.445312 -2.925781 1.40625 -2.875 C 1.375 -2.820312 1.359375 -2.773438 1.359375 -2.734375 C 1.359375 -2.679688 1.378906 -2.628906 1.421875 -2.578125 C 1.460938 -2.535156 1.539062 -2.5 1.65625 -2.46875 C 1.769531 -2.4375 1.9375 -2.40625 2.15625 -2.375 Z M 2.25 -2.359375 "/></g></g></g><g fill="#8a9ebb" fill-opacity="1"><g transform="translate(35.034887, 40.343178)"><g><path d="M 1.234375 0 L 0.1875 0 L 0.1875 -3.859375 L 1.234375 -3.859375 Z M 1.234375 -4.140625 L 0.1875 -4.140625 L 0.1875 -5.078125 L 1.234375 -5.078125 Z M 1.234375 -4.140625 "/></g></g></g><g fill="#8a9ebb" fill-opacity="1"><g transform="translate(36.452398, 40.343178)"><g><path d="M 1.765625 -2.984375 L 1.765625 -1.53125 C 1.765625 -1.34375 1.796875 -1.21875 1.859375 -1.15625 C 1.929688 -1.09375 2.054688 -1.0625 2.234375 -1.0625 C 2.421875 -1.070312 2.679688 -1.082031 3.015625 -1.09375 L 3.015625 -0.0625 C 3.015625 -0.0625 2.984375 -0.0546875 2.921875 -0.046875 C 2.859375 -0.0351562 2.734375 -0.0234375 2.546875 -0.015625 C 2.367188 -0.00390625 2.109375 0 1.765625 0 C 1.492188 0 1.285156 -0.046875 1.140625 -0.140625 C 0.992188 -0.234375 0.890625 -0.351562 0.828125 -0.5 C 0.765625 -0.65625 0.726562 -0.8125 0.71875 -0.96875 C 0.707031 -1.132812 0.703125 -1.289062 0.703125 -1.4375 L 0.703125 -2.984375 L 0.1875 -2.984375 L 0.1875 -3.875 L 0.703125 -3.875 L 0.703125 -5 L 1.765625 -5 L 1.765625 -3.875 L 3.015625 -3.875 L 3.015625 -2.984375 Z M 1.765625 -2.984375 "/></g></g></g><g fill="#8a9ebb" fill-opacity="1"><g transform="translate(39.653895, 40.343178)"><g><path d="M 4.3125 -1.703125 L 1.21875 -1.703125 C 1.25 -1.441406 1.347656 -1.242188 1.515625 -1.109375 C 1.679688 -0.984375 1.9375 -0.921875 2.28125 -0.921875 C 2.59375 -0.921875 2.828125 -0.957031 2.984375 -1.03125 C 3.148438 -1.113281 3.257812 -1.21875 3.3125 -1.34375 L 4.328125 -1.34375 C 4.273438 -0.9375 4.078125 -0.609375 3.734375 -0.359375 C 3.398438 -0.117188 2.914062 0 2.28125 0 C 1.613281 0 1.097656 -0.160156 0.734375 -0.484375 C 0.367188 -0.816406 0.1875 -1.304688 0.1875 -1.953125 C 0.1875 -2.597656 0.367188 -3.085938 0.734375 -3.421875 C 1.097656 -3.753906 1.613281 -3.921875 2.28125 -3.921875 C 2.550781 -3.921875 2.796875 -3.890625 3.015625 -3.828125 C 3.234375 -3.765625 3.425781 -3.675781 3.59375 -3.5625 C 3.84375 -3.394531 4.023438 -3.195312 4.140625 -2.96875 C 4.253906 -2.75 4.320312 -2.523438 4.34375 -2.296875 C 4.363281 -2.078125 4.363281 -1.878906 4.34375 -1.703125 Z M 2.28125 -3 C 1.976562 -3 1.742188 -2.945312 1.578125 -2.84375 C 1.421875 -2.738281 1.3125 -2.585938 1.25 -2.390625 L 3.296875 -2.390625 C 3.273438 -2.492188 3.226562 -2.585938 3.15625 -2.671875 C 3.09375 -2.765625 2.992188 -2.84375 2.859375 -2.90625 C 2.722656 -2.96875 2.53125 -3 2.28125 -3 Z M 2.28125 -3 "/></g></g></g><g fill="#8a9ebb" fill-opacity="1"><g transform="translate(44.196832, 40.343178)"><g><path d="M 2.25 -2.359375 C 2.46875 -2.328125 2.6875 -2.285156 2.90625 -2.234375 C 3.132812 -2.191406 3.335938 -2.128906 3.515625 -2.046875 C 3.703125 -1.960938 3.847656 -1.847656 3.953125 -1.703125 C 4.066406 -1.566406 4.125 -1.382812 4.125 -1.15625 C 4.125 -0.832031 4.050781 -0.585938 3.90625 -0.421875 C 3.757812 -0.253906 3.546875 -0.140625 3.265625 -0.078125 C 2.984375 -0.0234375 2.644531 0 2.25 0 C 1.363281 0 0.765625 -0.15625 0.453125 -0.46875 C 0.316406 -0.601562 0.238281 -0.742188 0.21875 -0.890625 C 0.195312 -1.046875 0.1875 -1.171875 0.1875 -1.265625 L 0.1875 -1.34375 L 1.265625 -1.34375 L 1.265625 -1.3125 C 1.265625 -1.144531 1.332031 -1.019531 1.46875 -0.9375 C 1.613281 -0.863281 1.863281 -0.828125 2.21875 -0.828125 C 2.351562 -0.828125 2.484375 -0.832031 2.609375 -0.84375 C 2.734375 -0.863281 2.835938 -0.894531 2.921875 -0.9375 C 3.003906 -0.988281 3.046875 -1.054688 3.046875 -1.140625 C 3.046875 -1.234375 3.003906 -1.304688 2.921875 -1.359375 C 2.847656 -1.410156 2.75 -1.445312 2.625 -1.46875 C 2.507812 -1.5 2.382812 -1.519531 2.25 -1.53125 C 2.21875 -1.53125 2.1875 -1.53125 2.15625 -1.53125 C 2.132812 -1.539062 2.109375 -1.546875 2.078125 -1.546875 C 1.703125 -1.597656 1.378906 -1.664062 1.109375 -1.75 C 0.847656 -1.832031 0.644531 -1.945312 0.5 -2.09375 C 0.351562 -2.25 0.28125 -2.457031 0.28125 -2.71875 C 0.28125 -2.851562 0.300781 -2.988281 0.34375 -3.125 C 0.394531 -3.269531 0.484375 -3.398438 0.609375 -3.515625 C 0.742188 -3.640625 0.925781 -3.734375 1.15625 -3.796875 C 1.394531 -3.867188 1.703125 -3.90625 2.078125 -3.90625 C 2.472656 -3.90625 2.800781 -3.863281 3.0625 -3.78125 C 3.320312 -3.707031 3.519531 -3.601562 3.65625 -3.46875 C 3.789062 -3.34375 3.882812 -3.203125 3.9375 -3.046875 C 3.988281 -2.898438 4.015625 -2.753906 4.015625 -2.609375 L 4.015625 -2.5625 L 2.953125 -2.5625 L 2.953125 -2.609375 C 2.953125 -2.753906 2.882812 -2.863281 2.75 -2.9375 C 2.613281 -3.019531 2.390625 -3.0625 2.078125 -3.0625 C 1.878906 -3.0625 1.726562 -3.039062 1.625 -3 C 1.519531 -2.96875 1.445312 -2.925781 1.40625 -2.875 C 1.375 -2.820312 1.359375 -2.773438 1.359375 -2.734375 C 1.359375 -2.679688 1.378906 -2.628906 1.421875 -2.578125 C 1.460938 -2.535156 1.539062 -2.5 1.65625 -2.46875 C 1.769531 -2.4375 1.9375 -2.40625 2.15625 -2.375 Z M 2.25 -2.359375 "/></g></g></g><g fill="#8a9ebb" fill-opacity="1"><g transform="translate(48.504678, 40.343178)"><g/></g></g><g fill="#8a9ebb" fill-opacity="1"><g transform="translate(50.751945, 40.343178)"><g><path d="M 5.828125 -3.890625 L 6.90625 -3.890625 L 5.671875 0 L 4.25 0 L 3.546875 -2.3125 L 2.828125 0 L 1.40625 0 L 0.1875 -3.890625 L 1.25 -3.890625 L 2.15625 -1.03125 L 3.03125 -3.890625 L 4.0625 -3.890625 L 4.9375 -1.03125 Z M 5.828125 -3.890625 "/></g></g></g><g fill="#8a9ebb" fill-opacity="1"><g transform="translate(57.832571, 40.343178)"><g><path d="M 4.3125 -1.703125 L 1.21875 -1.703125 C 1.25 -1.441406 1.347656 -1.242188 1.515625 -1.109375 C 1.679688 -0.984375 1.9375 -0.921875 2.28125 -0.921875 C 2.59375 -0.921875 2.828125 -0.957031 2.984375 -1.03125 C 3.148438 -1.113281 3.257812 -1.21875 3.3125 -1.34375 L 4.328125 -1.34375 C 4.273438 -0.9375 4.078125 -0.609375 3.734375 -0.359375 C 3.398438 -0.117188 2.914062 0 2.28125 0 C 1.613281 0 1.097656 -0.160156 0.734375 -0.484375 C 0.367188 -0.816406 0.1875 -1.304688 0.1875 -1.953125 C 0.1875 -2.597656 0.367188 -3.085938 0.734375 -3.421875 C 1.097656 -3.753906 1.613281 -3.921875 2.28125 -3.921875 C 2.550781 -3.921875 2.796875 -3.890625 3.015625 -3.828125 C 3.234375 -3.765625 3.425781 -3.675781 3.59375 -3.5625 C 3.84375 -3.394531 4.023438 -3.195312 4.140625 -2.96875 C 4.253906 -2.75 4.320312 -2.523438 4.34375 -2.296875 C 4.363281 -2.078125 4.363281 -1.878906 4.34375 -1.703125 Z M 2.28125 -3 C 1.976562 -3 1.742188 -2.945312 1.578125 -2.84375 C 1.421875 -2.738281 1.3125 -2.585938 1.25 -2.390625 L 3.296875 -2.390625 C 3.273438 -2.492188 3.226562 -2.585938 3.15625 -2.671875 C 3.09375 -2.765625 2.992188 -2.84375 2.859375 -2.90625 C 2.722656 -2.96875 2.53125 -3 2.28125 -3 Z M 2.28125 -3 "/></g></g></g><g fill="#8a9ebb" fill-opacity="1"><g transform="translate(62.375508, 40.343178)"><g><path d="M 2.71875 -3.890625 C 3.050781 -3.890625 3.328125 -3.835938 3.546875 -3.734375 C 3.765625 -3.640625 3.9375 -3.515625 4.0625 -3.359375 C 4.195312 -3.210938 4.296875 -3.050781 4.359375 -2.875 C 4.429688 -2.695312 4.476562 -2.523438 4.5 -2.359375 C 4.53125 -2.191406 4.546875 -2.050781 4.546875 -1.9375 C 4.546875 -1.832031 4.53125 -1.695312 4.5 -1.53125 C 4.476562 -1.375 4.429688 -1.207031 4.359375 -1.03125 C 4.296875 -0.851562 4.195312 -0.6875 4.0625 -0.53125 C 3.9375 -0.375 3.765625 -0.242188 3.546875 -0.140625 C 3.328125 -0.046875 3.054688 0 2.734375 0 C 2.367188 0 2.066406 -0.046875 1.828125 -0.140625 C 1.597656 -0.242188 1.414062 -0.378906 1.28125 -0.546875 L 1.234375 -0.546875 L 1.234375 0 L 0.1875 0 L 0.1875 -5 L 1.234375 -5 L 1.234375 -3.3125 L 1.296875 -3.3125 C 1.429688 -3.488281 1.613281 -3.628906 1.84375 -3.734375 C 2.070312 -3.835938 2.363281 -3.890625 2.71875 -3.890625 Z M 2.421875 -0.90625 C 2.671875 -0.90625 2.867188 -0.941406 3.015625 -1.015625 C 3.160156 -1.097656 3.269531 -1.195312 3.34375 -1.3125 C 3.414062 -1.4375 3.460938 -1.554688 3.484375 -1.671875 C 3.515625 -1.785156 3.53125 -1.875 3.53125 -1.9375 C 3.53125 -2.019531 3.515625 -2.117188 3.484375 -2.234375 C 3.460938 -2.347656 3.414062 -2.460938 3.34375 -2.578125 C 3.269531 -2.691406 3.160156 -2.785156 3.015625 -2.859375 C 2.867188 -2.941406 2.671875 -2.984375 2.421875 -2.984375 C 2.109375 -2.984375 1.875 -2.929688 1.71875 -2.828125 C 1.5625 -2.722656 1.457031 -2.59375 1.40625 -2.4375 C 1.351562 -2.28125 1.328125 -2.113281 1.328125 -1.9375 C 1.328125 -1.738281 1.351562 -1.5625 1.40625 -1.40625 C 1.457031 -1.25 1.5625 -1.125 1.71875 -1.03125 C 1.882812 -0.945312 2.117188 -0.90625 2.421875 -0.90625 Z M 2.421875 -0.90625 "/></g></g></g><g fill="#8a9ebb" fill-opacity="1"><g transform="translate(67.098231, 40.343178)"><g/></g></g><g fill="#8a9ebb" fill-opacity="1"><g transform="translate(69.345499, 40.343178)"><g><path d="M 4.3125 -1.234375 L 4.96875 -0.734375 L 4.34375 0 L 4.203125 0 L 3.609375 -0.5 C 3.421875 -0.332031 3.203125 -0.203125 2.953125 -0.109375 C 2.703125 -0.015625 2.453125 0.03125 2.203125 0.03125 C 1.953125 0.03125 1.707031 0.00390625 1.46875 -0.046875 C 1.226562 -0.109375 1.007812 -0.203125 0.8125 -0.328125 C 0.625 -0.453125 0.472656 -0.609375 0.359375 -0.796875 C 0.242188 -0.992188 0.1875 -1.222656 0.1875 -1.484375 C 0.1875 -1.804688 0.238281 -2.082031 0.34375 -2.3125 C 0.457031 -2.539062 0.644531 -2.769531 0.90625 -3 C 0.832031 -3.132812 0.78125 -3.253906 0.75 -3.359375 C 0.71875 -3.472656 0.703125 -3.609375 0.703125 -3.765625 C 0.703125 -4.003906 0.75 -4.207031 0.84375 -4.375 C 0.945312 -4.550781 1.078125 -4.6875 1.234375 -4.78125 C 1.398438 -4.882812 1.578125 -4.957031 1.765625 -5 C 1.960938 -5.050781 2.15625 -5.078125 2.34375 -5.078125 C 2.800781 -5.078125 3.171875 -5 3.453125 -4.84375 C 3.742188 -4.695312 3.957031 -4.503906 4.09375 -4.265625 C 4.238281 -4.035156 4.3125 -3.789062 4.3125 -3.53125 L 4.3125 -3.453125 L 3.1875 -3.453125 L 3.1875 -3.53125 C 3.1875 -3.9375 2.90625 -4.140625 2.34375 -4.140625 C 2.144531 -4.140625 2 -4.09375 1.90625 -4 C 1.820312 -3.914062 1.78125 -3.78125 1.78125 -3.59375 C 1.78125 -3.457031 1.832031 -3.332031 1.9375 -3.21875 C 2.050781 -3.101562 2.191406 -2.976562 2.359375 -2.84375 L 2.46875 -2.75 C 2.613281 -2.625 2.757812 -2.5 2.90625 -2.375 C 3.050781 -2.257812 3.179688 -2.148438 3.296875 -2.046875 C 3.421875 -1.953125 3.507812 -1.882812 3.5625 -1.84375 C 3.664062 -2.007812 3.71875 -2.207031 3.71875 -2.4375 L 3.71875 -2.53125 L 4.734375 -2.53125 L 4.734375 -2.4375 C 4.734375 -2.375 4.722656 -2.273438 4.703125 -2.140625 C 4.679688 -2.015625 4.640625 -1.867188 4.578125 -1.703125 C 4.523438 -1.546875 4.4375 -1.390625 4.3125 -1.234375 Z M 2.90625 -1.140625 C 2.84375 -1.191406 2.773438 -1.242188 2.703125 -1.296875 C 2.640625 -1.347656 2.578125 -1.40625 2.515625 -1.46875 C 2.453125 -1.519531 2.382812 -1.570312 2.3125 -1.625 C 2.25 -1.6875 2.179688 -1.75 2.109375 -1.8125 C 2.015625 -1.882812 1.914062 -1.960938 1.8125 -2.046875 C 1.707031 -2.128906 1.609375 -2.21875 1.515625 -2.3125 C 1.410156 -2.21875 1.328125 -2.113281 1.265625 -2 C 1.203125 -1.894531 1.171875 -1.75 1.171875 -1.5625 C 1.171875 -1.425781 1.203125 -1.316406 1.265625 -1.234375 C 1.335938 -1.160156 1.425781 -1.101562 1.53125 -1.0625 C 1.632812 -1.019531 1.738281 -0.992188 1.84375 -0.984375 C 1.945312 -0.972656 2.035156 -0.96875 2.109375 -0.96875 C 2.472656 -0.96875 2.738281 -1.023438 2.90625 -1.140625 Z M 2.90625 -1.140625 "/></g></g></g><g fill="#8a9ebb" fill-opacity="1"><g transform="translate(74.496931, 40.343178)"><g/></g></g><g fill="#8a9ebb" fill-opacity="1"><g transform="translate(76.744198, 40.343178)"><g><path d="M 3.421875 -3.3125 L 3.453125 -3.3125 L 3.453125 -3.890625 L 4.515625 -3.890625 L 4.515625 0 L 3.453125 0 L 3.453125 -0.546875 L 3.421875 -0.546875 C 3.296875 -0.378906 3.117188 -0.242188 2.890625 -0.140625 C 2.660156 -0.046875 2.363281 0 2 0 C 1.664062 0 1.390625 -0.046875 1.171875 -0.140625 C 0.953125 -0.242188 0.773438 -0.375 0.640625 -0.53125 C 0.515625 -0.6875 0.414062 -0.851562 0.34375 -1.03125 C 0.28125 -1.207031 0.238281 -1.375 0.21875 -1.53125 C 0.195312 -1.695312 0.1875 -1.832031 0.1875 -1.9375 C 0.1875 -2.050781 0.195312 -2.191406 0.21875 -2.359375 C 0.238281 -2.523438 0.28125 -2.695312 0.34375 -2.875 C 0.414062 -3.050781 0.515625 -3.210938 0.640625 -3.359375 C 0.773438 -3.515625 0.953125 -3.640625 1.171875 -3.734375 C 1.390625 -3.835938 1.664062 -3.890625 2 -3.890625 C 2.351562 -3.890625 2.644531 -3.835938 2.875 -3.734375 C 3.101562 -3.628906 3.285156 -3.488281 3.421875 -3.3125 Z M 2.296875 -0.90625 C 2.597656 -0.90625 2.828125 -0.945312 2.984375 -1.03125 C 3.140625 -1.125 3.25 -1.25 3.3125 -1.40625 C 3.375 -1.5625 3.40625 -1.738281 3.40625 -1.9375 C 3.40625 -2.113281 3.375 -2.28125 3.3125 -2.4375 C 3.25 -2.59375 3.140625 -2.722656 2.984375 -2.828125 C 2.828125 -2.929688 2.597656 -2.984375 2.296875 -2.984375 C 2.046875 -2.984375 1.84375 -2.941406 1.6875 -2.859375 C 1.539062 -2.785156 1.429688 -2.691406 1.359375 -2.578125 C 1.285156 -2.460938 1.238281 -2.347656 1.21875 -2.234375 C 1.195312 -2.117188 1.1875 -2.019531 1.1875 -1.9375 C 1.1875 -1.875 1.195312 -1.785156 1.21875 -1.671875 C 1.238281 -1.554688 1.285156 -1.4375 1.359375 -1.3125 C 1.441406 -1.195312 1.554688 -1.097656 1.703125 -1.015625 C 1.847656 -0.941406 2.046875 -0.90625 2.296875 -0.90625 Z M 2.296875 -0.90625 "/></g></g></g><g fill="#8a9ebb" fill-opacity="1"><g transform="translate(81.453092, 40.343178)"><g><path d="M 2.71875 -3.875 C 3.050781 -3.875 3.328125 -3.828125 3.546875 -3.734375 C 3.765625 -3.640625 3.9375 -3.515625 4.0625 -3.359375 C 4.195312 -3.203125 4.296875 -3.035156 4.359375 -2.859375 C 4.429688 -2.679688 4.476562 -2.507812 4.5 -2.34375 C 4.53125 -2.1875 4.546875 -2.050781 4.546875 -1.9375 C 4.546875 -1.832031 4.53125 -1.695312 4.5 -1.53125 C 4.476562 -1.375 4.429688 -1.207031 4.359375 -1.03125 C 4.296875 -0.851562 4.195312 -0.6875 4.0625 -0.53125 C 3.9375 -0.375 3.765625 -0.242188 3.546875 -0.140625 C 3.328125 -0.046875 3.054688 0 2.734375 0 C 2.367188 0 2.066406 -0.046875 1.828125 -0.140625 C 1.597656 -0.234375 1.414062 -0.363281 1.28125 -0.53125 L 1.234375 -0.53125 L 1.234375 1.484375 L 0.1875 1.484375 L 0.1875 -3.875 L 1.234375 -3.875 L 1.234375 -3.3125 L 1.296875 -3.3125 C 1.429688 -3.476562 1.613281 -3.613281 1.84375 -3.71875 C 2.070312 -3.820312 2.363281 -3.875 2.71875 -3.875 Z M 2.421875 -0.90625 C 2.671875 -0.90625 2.867188 -0.941406 3.015625 -1.015625 C 3.160156 -1.097656 3.269531 -1.195312 3.34375 -1.3125 C 3.414062 -1.425781 3.460938 -1.539062 3.484375 -1.65625 C 3.515625 -1.769531 3.53125 -1.863281 3.53125 -1.9375 C 3.53125 -2.007812 3.515625 -2.101562 3.484375 -2.21875 C 3.460938 -2.332031 3.414062 -2.445312 3.34375 -2.5625 C 3.269531 -2.675781 3.160156 -2.769531 3.015625 -2.84375 C 2.867188 -2.925781 2.671875 -2.96875 2.421875 -2.96875 C 2.117188 -2.96875 1.882812 -2.914062 1.71875 -2.8125 C 1.5625 -2.71875 1.457031 -2.59375 1.40625 -2.4375 C 1.351562 -2.28125 1.328125 -2.113281 1.328125 -1.9375 C 1.328125 -1.738281 1.351562 -1.5625 1.40625 -1.40625 C 1.457031 -1.25 1.5625 -1.125 1.71875 -1.03125 C 1.882812 -0.945312 2.117188 -0.90625 2.421875 -0.90625 Z M 2.421875 -0.90625 "/></g></g></g><g fill="#8a9ebb" fill-opacity="1"><g transform="translate(86.175816, 40.343178)"><g><path d="M 2.71875 -3.875 C 3.050781 -3.875 3.328125 -3.828125 3.546875 -3.734375 C 3.765625 -3.640625 3.9375 -3.515625 4.0625 -3.359375 C 4.195312 -3.203125 4.296875 -3.035156 4.359375 -2.859375 C 4.429688 -2.679688 4.476562 -2.507812 4.5 -2.34375 C 4.53125 -2.1875 4.546875 -2.050781 4.546875 -1.9375 C 4.546875 -1.832031 4.53125 -1.695312 4.5 -1.53125 C 4.476562 -1.375 4.429688 -1.207031 4.359375 -1.03125 C 4.296875 -0.851562 4.195312 -0.6875 4.0625 -0.53125 C 3.9375 -0.375 3.765625 -0.242188 3.546875 -0.140625 C 3.328125 -0.046875 3.054688 0 2.734375 0 C 2.367188 0 2.066406 -0.046875 1.828125 -0.140625 C 1.597656 -0.234375 1.414062 -0.363281 1.28125 -0.53125 L 1.234375 -0.53125 L 1.234375 1.484375 L 0.1875 1.484375 L 0.1875 -3.875 L 1.234375 -3.875 L 1.234375 -3.3125 L 1.296875 -3.3125 C 1.429688 -3.476562 1.613281 -3.613281 1.84375 -3.71875 C 2.070312 -3.820312 2.363281 -3.875 2.71875 -3.875 Z M 2.421875 -0.90625 C 2.671875 -0.90625 2.867188 -0.941406 3.015625 -1.015625 C 3.160156 -1.097656 3.269531 -1.195312 3.34375 -1.3125 C 3.414062 -1.425781 3.460938 -1.539062 3.484375 -1.65625 C 3.515625 -1.769531 3.53125 -1.863281 3.53125 -1.9375 C 3.53125 -2.007812 3.515625 -2.101562 3.484375 -2.21875 C 3.460938 -2.332031 3.414062 -2.445312 3.34375 -2.5625 C 3.269531 -2.675781 3.160156 -2.769531 3.015625 -2.84375 C 2.867188 -2.925781 2.671875 -2.96875 2.421875 -2.96875 C 2.117188 -2.96875 1.882812 -2.914062 1.71875 -2.8125 C 1.5625 -2.71875 1.457031 -2.59375 1.40625 -2.4375 C 1.351562 -2.28125 1.328125 -2.113281 1.328125 -1.9375 C 1.328125 -1.738281 1.351562 -1.5625 1.40625 -1.40625 C 1.457031 -1.25 1.5625 -1.125 1.71875 -1.03125 C 1.882812 -0.945312 2.117188 -0.90625 2.421875 -0.90625 Z M 2.421875 -0.90625 "/></g></g></g><g fill="#47b3b1" fill-opacity="1"><g transform="translate(26.088494, 32.116584)"><g><path d="M 5.578125 -11.90625 C 6.585938 -11.90625 7.4375 -11.773438 8.125 -11.515625 C 8.820312 -11.253906 9.390625 -10.90625 9.828125 -10.46875 C 10.273438 -10.03125 10.613281 -9.550781 10.84375 -9.03125 C 11.082031 -8.507812 11.242188 -7.976562 11.328125 -7.4375 C 11.410156 -6.90625 11.453125 -6.410156 11.453125 -5.953125 C 11.453125 -5.492188 11.40625 -4.992188 11.3125 -4.453125 C 11.21875 -3.921875 11.050781 -3.390625 10.8125 -2.859375 C 10.582031 -2.335938 10.242188 -1.859375 9.796875 -1.421875 C 9.359375 -0.992188 8.796875 -0.648438 8.109375 -0.390625 C 7.421875 -0.128906 6.578125 0 5.578125 0 C 5.453125 0 5.21875 0 4.875 0 C 4.53125 0 4.132812 0 3.6875 0 C 3.238281 0 2.785156 0 2.328125 0 C 1.878906 0 1.484375 0 1.140625 0 C 0.796875 0 0.566406 0 0.453125 0 L 0.453125 -11.90625 Z M 5.578125 -2.359375 C 6.242188 -2.359375 6.785156 -2.476562 7.203125 -2.71875 C 7.628906 -2.96875 7.957031 -3.28125 8.1875 -3.65625 C 8.414062 -4.039062 8.570312 -4.4375 8.65625 -4.84375 C 8.738281 -5.257812 8.78125 -5.628906 8.78125 -5.953125 C 8.78125 -6.285156 8.738281 -6.65625 8.65625 -7.0625 C 8.570312 -7.476562 8.414062 -7.875 8.1875 -8.25 C 7.957031 -8.625 7.628906 -8.929688 7.203125 -9.171875 C 6.785156 -9.421875 6.242188 -9.546875 5.578125 -9.546875 C 5.210938 -9.546875 4.832031 -9.546875 4.4375 -9.546875 C 4.050781 -9.546875 3.722656 -9.546875 3.453125 -9.546875 C 3.179688 -9.546875 3.046875 -9.546875 3.046875 -9.546875 L 3.046875 -2.359375 C 3.285156 -2.359375 3.617188 -2.359375 4.046875 -2.359375 C 4.484375 -2.359375 4.992188 -2.359375 5.578125 -2.359375 Z M 5.578125 -2.359375 "/></g></g></g><g fill="#47b3b1" fill-opacity="1"><g transform="translate(38.034132, 32.116584)"><g><path d="M 3.046875 0 L 0.453125 0 L 0.453125 -11.90625 L 3.046875 -11.90625 Z M 3.046875 0 "/></g></g></g><g fill="#47b3b1" fill-opacity="1"><g transform="translate(41.556559, 32.116584)"><g><path d="M 6.5625 -6.90625 L 12.6875 -6.90625 L 12.6875 -0.109375 L 10.09375 -0.109375 L 10.09375 -1.953125 L 9.953125 -1.953125 C 9.742188 -1.410156 9.359375 -0.945312 8.796875 -0.5625 C 8.242188 -0.1875 7.53125 0 6.65625 0 C 5.507812 0 4.46875 -0.222656 3.53125 -0.671875 C 2.59375 -1.128906 1.84375 -1.804688 1.28125 -2.703125 C 0.726562 -3.609375 0.453125 -4.726562 0.453125 -6.0625 C 0.453125 -7.363281 0.726562 -8.460938 1.28125 -9.359375 C 1.84375 -10.253906 2.59375 -10.929688 3.53125 -11.390625 C 4.46875 -11.859375 5.507812 -12.09375 6.65625 -12.09375 C 7.6875 -12.09375 8.617188 -11.921875 9.453125 -11.578125 C 10.296875 -11.234375 10.992188 -10.753906 11.546875 -10.140625 C 12.109375 -9.535156 12.460938 -8.851562 12.609375 -8.09375 L 9.78125 -8.09375 C 9.289062 -9 8.25 -9.453125 6.65625 -9.453125 C 5.96875 -9.453125 5.351562 -9.332031 4.8125 -9.09375 C 4.269531 -8.863281 3.835938 -8.492188 3.515625 -7.984375 C 3.203125 -7.484375 3.046875 -6.84375 3.046875 -6.0625 C 3.046875 -5.257812 3.203125 -4.609375 3.515625 -4.109375 C 3.835938 -3.609375 4.269531 -3.238281 4.8125 -3 C 5.351562 -2.757812 5.96875 -2.640625 6.65625 -2.640625 C 7.625 -2.640625 8.375 -2.800781 8.90625 -3.125 C 9.445312 -3.457031 9.800781 -3.910156 9.96875 -4.484375 L 6.5625 -4.484375 Z M 6.5625 -6.90625 "/></g></g></g><g fill="#47b3b1" fill-opacity="1"><g transform="translate(54.710383, 32.116584)"><g><path d="M 3.046875 0 L 0.453125 0 L 0.453125 -11.90625 L 3.046875 -11.90625 Z M 3.046875 0 "/></g></g></g><g fill="#47b3b1" fill-opacity="1"><g transform="translate(58.984204, 32.116584)"><g><path d="M 0.453125 -9.546875 L 0.453125 -11.90625 L 12.046875 -11.90625 L 12.046875 -9.546875 L 7.5625 -9.546875 L 7.5625 0 L 4.96875 0 L 4.96875 -9.546875 Z M 0.453125 -9.546875 "/></g></g></g><g fill="#47b3b1" fill-opacity="1"><g transform="translate(71.491399, 32.116584)"><g><path d="M 6.5625 -12.09375 C 7.71875 -12.09375 8.757812 -11.859375 9.6875 -11.390625 C 10.613281 -10.929688 11.34375 -10.253906 11.875 -9.359375 C 12.414062 -8.460938 12.6875 -7.363281 12.6875 -6.0625 C 12.6875 -4.75 12.414062 -3.640625 11.875 -2.734375 C 11.34375 -1.835938 10.613281 -1.15625 9.6875 -0.6875 C 8.757812 -0.226562 7.71875 0 6.5625 0 C 5.414062 0 4.378906 -0.222656 3.453125 -0.671875 C 2.535156 -1.128906 1.804688 -1.804688 1.265625 -2.703125 C 0.722656 -3.609375 0.453125 -4.726562 0.453125 -6.0625 C 0.453125 -7.363281 0.722656 -8.460938 1.265625 -9.359375 C 1.804688 -10.253906 2.535156 -10.929688 3.453125 -11.390625 C 4.378906 -11.859375 5.414062 -12.09375 6.5625 -12.09375 Z M 6.5625 -2.640625 C 7.257812 -2.640625 7.875 -2.765625 8.40625 -3.015625 C 8.945312 -3.265625 9.375 -3.640625 9.6875 -4.140625 C 10 -4.648438 10.15625 -5.289062 10.15625 -6.0625 C 10.15625 -6.832031 10 -7.46875 9.6875 -7.96875 C 9.375 -8.476562 8.945312 -8.851562 8.40625 -9.09375 C 7.875 -9.332031 7.257812 -9.453125 6.5625 -9.453125 C 5.882812 -9.453125 5.273438 -9.332031 4.734375 -9.09375 C 4.203125 -8.863281 3.78125 -8.492188 3.46875 -7.984375 C 3.15625 -7.484375 3 -6.84375 3 -6.0625 C 3 -5.257812 3.15625 -4.609375 3.46875 -4.109375 C 3.78125 -3.609375 4.203125 -3.238281 4.734375 -3 C 5.273438 -2.757812 5.882812 -2.640625 6.5625 -2.640625 Z M 6.5625 -2.640625 "/></g></g></g><g fill="#47b3b1" fill-opacity="1"><g transform="translate(84.662242, 32.116584)"><g><path d="M 9.4375 -6.109375 C 9.976562 -5.910156 10.390625 -5.601562 10.671875 -5.1875 C 10.960938 -4.769531 11.109375 -4.171875 11.109375 -3.390625 C 11.109375 -2.628906 10.953125 -1.992188 10.640625 -1.484375 C 10.335938 -0.984375 9.929688 -0.609375 9.421875 -0.359375 C 8.910156 -0.117188 8.359375 0 7.765625 0 C 7.546875 0 7.21875 0 6.78125 0 C 6.34375 0 5.847656 0 5.296875 0 C 4.742188 0 4.1875 0 3.625 0 C 3.0625 0 2.539062 0 2.0625 0 C 1.582031 0 1.191406 0 0.890625 0 C 0.597656 0 0.453125 0 0.453125 0 L 0.453125 -11.90625 L 5.046875 -11.90625 C 5.222656 -11.90625 5.429688 -11.90625 5.671875 -11.90625 C 5.910156 -11.90625 6.191406 -11.90625 6.515625 -11.90625 C 7.753906 -11.90625 8.742188 -11.640625 9.484375 -11.109375 C 10.222656 -10.578125 10.59375 -9.71875 10.59375 -8.53125 C 10.59375 -7.882812 10.492188 -7.363281 10.296875 -6.96875 C 10.097656 -6.582031 9.8125 -6.296875 9.4375 -6.109375 Z M 5.78125 -9.546875 C 5.613281 -9.546875 5.394531 -9.546875 5.125 -9.546875 C 4.863281 -9.546875 4.585938 -9.546875 4.296875 -9.546875 C 4.003906 -9.546875 3.742188 -9.546875 3.515625 -9.546875 C 3.296875 -9.546875 3.140625 -9.546875 3.046875 -9.546875 L 3.046875 -7.046875 C 3.523438 -7.046875 4.035156 -7.046875 4.578125 -7.046875 C 5.117188 -7.046875 5.554688 -7.046875 5.890625 -7.046875 C 6.285156 -7.046875 6.644531 -7.066406 6.96875 -7.109375 C 7.300781 -7.160156 7.566406 -7.269531 7.765625 -7.4375 C 7.960938 -7.601562 8.0625 -7.890625 8.0625 -8.296875 C 8.0625 -8.679688 7.957031 -8.960938 7.75 -9.140625 C 7.550781 -9.316406 7.28125 -9.425781 6.9375 -9.46875 C 6.59375 -9.519531 6.207031 -9.546875 5.78125 -9.546875 Z M 6.328125 -2.359375 C 6.742188 -2.359375 7.125 -2.378906 7.46875 -2.421875 C 7.8125 -2.472656 8.078125 -2.59375 8.265625 -2.78125 C 8.460938 -2.96875 8.5625 -3.257812 8.5625 -3.65625 C 8.5625 -4.226562 8.394531 -4.585938 8.0625 -4.734375 C 7.726562 -4.890625 7.257812 -4.96875 6.65625 -4.96875 C 6.445312 -4.96875 6.175781 -4.96875 5.84375 -4.96875 C 5.519531 -4.96875 5.175781 -4.96875 4.8125 -4.96875 C 4.445312 -4.96875 4.101562 -4.96875 3.78125 -4.96875 C 3.46875 -4.96875 3.222656 -4.96875 3.046875 -4.96875 L 3.046875 -2.359375 L 5.203125 -2.359375 C 5.460938 -2.359375 5.628906 -2.359375 5.703125 -2.359375 C 5.773438 -2.359375 5.816406 -2.359375 5.828125 -2.359375 C 5.835938 -2.359375 5.867188 -2.359375 5.921875 -2.359375 C 5.972656 -2.359375 6.109375 -2.359375 6.328125 -2.359375 Z M 6.328125 -2.359375 "/></g></g></g></svg>